<?xml version="1.0" encoding="UTF-8" standalone="no"?>
<!-- Created with Inkscape (http://www.inkscape.org/) -->

<svg
   width="512"
   height="512"
   viewBox="0 0 512 512"
   version="1.1"
   id="svg1"
   xml:space="preserve"
   inkscape:export-filename="localcafe.jpg"
   inkscape:export-xdpi="96"
   inkscape:export-ydpi="96"
   inkscape:version="1.4.2 (ebf0e940d0, 2025-05-08)"
   sodipodi:docname="drawing.svg"
   xmlns:inkscape="http://www.inkscape.org/namespaces/inkscape"
   xmlns:sodipodi="http://sodipodi.sourceforge.net/DTD/sodipodi-0.dtd"
   xmlns="http://www.w3.org/2000/svg"
   xmlns:svg="http://www.w3.org/2000/svg"><sodipodi:namedview
     id="namedview1"
     pagecolor="#ffffff"
     bordercolor="#000000"
     borderopacity="0.25"
     inkscape:showpageshadow="2"
     inkscape:pageopacity="0.0"
     inkscape:pagecheckerboard="0"
     inkscape:deskcolor="#d1d1d1"
     inkscape:document-units="px"
     inkscape:zoom="0.75195313"
     inkscape:cx="239.37662"
     inkscape:cy="265.97403"
     inkscape:window-width="2560"
     inkscape:window-height="979"
     inkscape:window-x="0"
     inkscape:window-y="0"
     inkscape:window-maximized="1"
     inkscape:current-layer="layer1" /><defs
     id="defs1" /><g
     inkscape:label="Layer 1"
     inkscape:groupmode="layer"
     id="layer1"><path
       d="m 251.54683,272.70271 c -26.88472,-4e-4 -48.67929,25.48416 -48.67931,56.92114 3.4e-4,13.11571 7.83651,30.66054 10.9666,35.98979 3.86856,5.86232 37.62759,50.64469 37.62759,50.64469 0,0 33.30425,-43.82774 36.98781,-49.5132 3.29171,-5.08065 11.77596,-23.49844 11.77595,-37.12128 -10e-6,-31.43668 -21.79418,-56.92112 -48.67864,-56.92114 z"
       style="fill:none;stroke:#000000;stroke-width:25.073;stroke-linecap:round;stroke-linejoin:round;stroke-dasharray:none;paint-order:fill markers stroke"
       id="path2"
       sodipodi:nodetypes="ccccssc" /><g
       id="g2"
       transform="matrix(5.419679,0,0,5.4165865,5.701744,-14.300785)"
       style="stroke-width:4.14654;stroke-dasharray:none"><path
         d="m 46.334625,20.788056 a 5.7343362,6.2147008 0 0 0 0,8.778614 2.145583,2.3253182 0 1 1 -3.034313,3.288496 10.02866,10.868759 0 0 1 0,-15.346317 5.7343362,6.2147008 0 0 0 0,-8.7786134 2.1455831,2.3253183 0 0 1 3.034313,-3.2884964 10.02866,10.868759 0 0 1 0,15.3463168 z m 12.857256,-8.434901 a 2.1455833,2.3253185 0 0 0 -3.034313,3.288497 3.4800306,3.7715524 0 0 1 0,5.322905 7.7657827,8.4163213 0 0 0 0,11.890609 2.145583,2.3253182 0 0 0 3.034313,-3.288496 3.4800306,3.7715524 0 0 1 0,-5.322905 7.7657827,8.4163213 0 0 0 0.0085,-11.899899 z m -25.714512,0 a 2.1455833,2.3253185 0 0 0 -3.034313,3.288497 3.4800306,3.7715524 0 0 1 0,5.322905 7.7657827,8.4163213 0 0 0 0,11.890609 2.145583,2.3253182 0 0 0 3.034313,-3.288496 3.4800306,3.7715524 0 0 1 0,-5.322905 7.7657827,8.4163213 0 0 0 0,-11.899899 z M 12.760042,45.247409 a 5.8800518,6.372623 0 0 1 5.880053,-6.744205 h 52.329033 a 5.8800518,6.372623 0 0 1 5.880052,6.744205 c -0.08572,1.597801 -0.22286,3.23276 -0.394291,4.886297 h 1.268584 a 10.285805,11.147445 0 0 1 10.002945,13.832122 10.285805,11.147445 0 0 1 -9.96866,8.44419 h -6.102911 a 29.271686,31.723772 0 0 1 -6.685772,9.911937 h 0.274288 a 5.7771937,6.2611485 0 0 1 0,12.513008 H 24.400146 a 5.7771937,6.2611485 0 0 1 0,-12.513008 h 0.282859 A 29.34883,31.807378 0 0 1 16.342932,67.588748 99.549445,107.8887 0 0 1 12.760042,45.247409 Z m 63.146272,9.540355 a 102.0009,110.5455 0 0 1 -2.571451,12.838142 l -0.04286,0.148632 h 4.491468 a 6.0000528,6.5026765 0 0 0 5.785766,-4.960613 6.0000528,6.5026765 0 0 0 -5.811481,-8.063318 z m -58.86909,-9.809752 a 95.143695,103.11387 0 0 0 3.428601,21.365937 25.165936,27.274083 0 0 0 11.802961,16.312429 2.142876,2.3223845 0 0 1 -1.062866,4.310346 h -6.805774 a 1.4914417,1.6163796 0 0 0 0,3.223469 h 40.843217 a 1.4914417,1.6163796 0 0 0 0,-3.223469 H 58.437588 A 2.142876,2.3223845 0 0 1 57.374723,82.628509 25.165936,27.274083 0 0 0 69.194826,66.353239 95.143695,103.11387 0 0 0 72.623428,44.987302 1.5600137,1.6906959 0 0 0 72.194853,43.714635 1.6028713,1.7371436 0 0 0 70.969128,43.157264 H 18.640095 a 1.6028713,1.7371436 0 0 0 -1.174296,0.548082 1.5600137,1.6906959 0 0 0 -0.428575,1.272666 z"
         id="path1"
         style="stroke-width:3.99033;stroke-dasharray:none" /></g></g></svg>
